<svg
   version="1.1"
   preserveAspectRatio="xMidYMid meet"
   viewBox="213.26298763736267 71.19780219780219 269.16483516483515 269.16483516483504"
   width="16"
   height="16"
   id="svg16"
   sodipodi:docname="pdf.svg"
   inkscape:version="1.1 (c68e22c387, 2021-05-23)"
   xmlns:inkscape="http://www.inkscape.org/namespaces/inkscape"
   xmlns:sodipodi="http://sodipodi.sourceforge.net/DTD/sodipodi-0.dtd"
   xmlns="http://www.w3.org/2000/svg"
   xmlns:svg="http://www.w3.org/2000/svg">
  <sodipodi:namedview
     id="namedview18"
     pagecolor="#ffffff"
     bordercolor="#666666"
     borderopacity="1.0"
     inkscape:pageshadow="2"
     inkscape:pageopacity="0.0"
     inkscape:pagecheckerboard="0"
     showgrid="false"
     inkscape:zoom="16.25"
     inkscape:cx="23.107692"
     inkscape:cy="11.846154"
     inkscape:window-width="1366"
     inkscape:window-height="705"
     inkscape:window-x="-8"
     inkscape:window-y="-8"
     inkscape:window-maximized="1"
     inkscape:current-layer="g6877" />
  <defs
     id="defs40">
    <path
       d="M459.43 72.2C470.47 72.2 479.43 81.15 479.43 92.2C479.43 135.23 479.43 244.33 479.43 287.36C479.43 298.41 470.47 307.36 459.43 307.36C416.39 307.36 307.3 307.36 264.26 307.36C253.22 307.36 244.26 298.41 244.26 287.36C244.26 244.33 244.26 135.23 244.26 92.2C244.26 81.15 253.22 72.2 264.26 72.2C307.3 72.2 416.39 72.2 459.43 72.2Z"
       id="bjjSlAvgE" />
    <path
       d="M449.28 319.81L449.17 320.61L449.02 321.39L448.85 322.17L448.64 322.93L448.41 323.68L448.15 324.42L447.86 325.15L447.54 325.86L447.2 326.55L446.83 327.23L446.43 327.9L446.01 328.54L445.57 329.17L445.1 329.79L444.61 330.38L444.1 330.95L443.57 331.5L443.02 332.04L442.44 332.55L441.85 333.04L441.24 333.5L440.61 333.95L439.96 334.37L439.3 334.76L438.62 335.13L437.92 335.47L437.21 335.79L436.49 336.08L435.75 336.34L435 336.58L434.23 336.78L433.46 336.96L432.67 337.1L431.87 337.21L431.07 337.3L430.25 337.35L429.43 337.36L234.26 337.36L233.44 337.35L232.62 337.3L231.82 337.21L231.02 337.1L230.23 336.96L229.46 336.78L228.69 336.58L227.94 336.34L227.2 336.08L226.48 335.79L225.77 335.47L225.07 335.13L224.39 334.76L223.73 334.37L223.08 333.95L222.45 333.5L221.84 333.04L221.25 332.55L220.67 332.04L220.12 331.5L219.59 330.95L219.08 330.38L218.59 329.79L218.12 329.17L217.68 328.54L217.26 327.9L216.86 327.23L216.5 326.55L216.15 325.86L215.83 325.15L215.54 324.42L215.28 323.68L215.05 322.93L214.84 322.17L214.67 321.39L214.52 320.61L214.41 319.81L214.33 319L214.28 318.19L214.26 317.36L214.26 122.2L214.28 121.37L214.33 120.56L214.41 119.75L214.52 118.95L214.67 118.17L214.84 117.39L215.05 116.63L215.28 115.88L215.54 115.14L215.83 114.41L216.15 113.7L216.5 113.01L216.86 112.33L217.26 111.66L217.68 111.02L218.12 110.39L218.59 109.77L219.08 109.18L219.59 108.61L220.12 108.06L220.67 107.52L221.25 107.01L221.84 106.52L222.45 106.06L223.08 105.61L223.73 105.19L224.39 104.8L225.07 104.43L225.77 104.09L226.48 103.77L227.2 103.48L227.94 103.22L228.69 102.98L229.46 102.78L230.23 102.6L231.02 102.46L231.82 102.35L232.62 102.26L233.44 102.21L234.26 102.2L234.26 297.36L234.28 298.19L234.33 299L234.41 299.81L234.52 300.61L234.67 301.39L234.84 302.17L235.05 302.93L235.28 303.68L235.54 304.42L235.83 305.15L236.15 305.86L236.5 306.55L236.86 307.23L237.26 307.9L237.68 308.54L238.12 309.17L238.59 309.79L239.08 310.38L239.59 310.95L240.12 311.5L240.67 312.04L241.25 312.55L241.84 313.04L242.45 313.5L243.08 313.95L243.73 314.37L244.39 314.76L245.07 315.13L245.77 315.47L246.48 315.79L247.2 316.08L247.94 316.34L248.69 316.58L249.46 316.78L250.23 316.96L251.02 317.1L251.82 317.21L252.62 317.3L253.44 317.35L254.26 317.36L449.43 317.36L449.41 318.19L449.36 319L449.28 319.81Z"
       id="a7hcXfB9mU" />
  </defs>
  <g
     id="g53">
    <g
       id="g6877">
      <g
         id="g44">
        <path
           d="m 459.43,72.2 c 11.04,0 20,8.95 20,20 0,43.03 0,152.13 0,195.16 0,11.05 -8.96,20 -20,20 -43.04,0 -152.13,0 -195.17,0 -11.04,0 -20,-8.95 -20,-20 0,-43.03 0,-152.13 0,-195.16 0,-11.05 8.96,-20 20,-20 43.04,0 152.13,0 195.17,0 z"
           id="use42"
           style="fill:#000000;fill-opacity:1" />
      </g>
      <g
         id="g51">
        <path
           d="m 449.28,319.81 -0.11,0.8 -0.15,0.78 -0.17,0.78 -0.21,0.76 -0.23,0.75 -0.26,0.74 -0.29,0.73 -0.32,0.71 -0.34,0.69 -0.37,0.68 -0.4,0.67 -0.42,0.64 -0.44,0.63 -0.47,0.62 -0.49,0.59 -0.51,0.57 -0.53,0.55 -0.55,0.54 -0.58,0.51 -0.59,0.49 -0.61,0.46 -0.63,0.45 -0.65,0.42 -0.66,0.39 -0.68,0.37 -0.7,0.34 -0.71,0.32 -0.72,0.29 -0.74,0.26 -0.75,0.24 -0.77,0.2 -0.77,0.18 -0.79,0.14 -0.8,0.11 -0.8,0.09 -0.82,0.05 -0.82,0.01 H 234.26 l -0.82,-0.01 -0.82,-0.05 -0.8,-0.09 -0.8,-0.11 -0.79,-0.14 -0.77,-0.18 -0.77,-0.2 -0.75,-0.24 -0.74,-0.26 -0.72,-0.29 -0.71,-0.32 -0.7,-0.34 -0.68,-0.37 -0.66,-0.39 -0.65,-0.42 -0.63,-0.45 -0.61,-0.46 -0.59,-0.49 -0.58,-0.51 -0.55,-0.54 -0.53,-0.55 -0.51,-0.57 -0.49,-0.59 -0.47,-0.62 -0.44,-0.63 -0.42,-0.64 -0.4,-0.67 -0.36,-0.68 -0.35,-0.69 -0.32,-0.71 -0.29,-0.73 -0.26,-0.74 -0.23,-0.75 -0.21,-0.76 -0.17,-0.78 -0.15,-0.78 -0.11,-0.8 -0.08,-0.81 -0.05,-0.81 -0.02,-0.83 V 122.2 l 0.02,-0.83 0.05,-0.81 0.08,-0.81 0.11,-0.8 0.15,-0.78 0.17,-0.78 0.21,-0.76 0.23,-0.75 0.26,-0.74 0.29,-0.73 0.32,-0.71 0.35,-0.69 0.36,-0.68 0.4,-0.67 0.42,-0.64 0.44,-0.63 0.47,-0.62 0.49,-0.59 0.51,-0.57 0.53,-0.55 0.55,-0.54 0.58,-0.51 0.59,-0.49 0.61,-0.46 0.63,-0.45 0.65,-0.42 0.66,-0.39 0.68,-0.37 0.7,-0.34 0.71,-0.32 0.72,-0.29 0.74,-0.26 0.75,-0.24 0.77,-0.2 0.77,-0.18 0.79,-0.14 0.8,-0.11 0.8,-0.09 0.82,-0.05 0.82,-0.01 v 195.16 l 0.02,0.83 0.05,0.81 0.08,0.81 0.11,0.8 0.15,0.78 0.17,0.78 0.21,0.76 0.23,0.75 0.26,0.74 0.29,0.73 0.32,0.71 0.35,0.69 0.36,0.68 0.4,0.67 0.42,0.64 0.44,0.63 0.47,0.62 0.49,0.59 0.51,0.57 0.53,0.55 0.55,0.54 0.58,0.51 0.59,0.49 0.61,0.46 0.63,0.45 0.65,0.42 0.66,0.39 0.68,0.37 0.7,0.34 0.71,0.32 0.72,0.29 0.74,0.26 0.75,0.24 0.77,0.2 0.77,0.18 0.79,0.14 0.8,0.11 0.8,0.09 0.82,0.05 0.82,0.01 h 195.17 l -0.02,0.83 -0.05,0.81 z"
           id="use49"
           style="fill:#000000;fill-opacity:1" />
      </g>
      <text
         xml:space="preserve"
         style="font-style:normal;font-weight:normal;font-size:116.317px;line-height:1.25;font-family:sans-serif;fill:#000000;fill-opacity:1;stroke:none;stroke-width:2.90792"
         x="244.04408"
         y="238.4724"
         id="text2432"
         transform="scale(0.99876582,1.0012357)"><tspan
           sodipodi:role="line"
           id="tspan2430"
           style="fill:#ffffff;stroke-width:2.90792"
           x="244.04408"
           y="238.4724"
           rotate="0 0 0 0">PDF</tspan></text>
    </g>
  </g>
</svg>
